# xmcd
#
# Track frame offsets:
#	150
#	16339
#	33427
#	57231
#	70693
#	85499
#	101128
#	120201
#	145112
#	163273
#	177124
#	190957
#	208791
#	223203
#	236953
#	251484
#	270698
#	290031
#	306775
#	320988
#	333610
#
# Disc length: 4670 seconds
#
# Revision: 1
# Processed by: cddbd v1.5.2PL0 Copyright (c) Steve Scherf et al.
# Submitted via: EasyCDDAExtractor 10.0.6.1
#
DISCID=4b123c15
DTITLE=Various Artist - FUV Live 13
DYEAR=2010
DGENRE=Folk-Rock
TTITLE0=Brandi Carlile - Dreams
TTITLE1=Josh Ritter - Change of Time
TTITLE2=Fanfarlo - Comet
TTITLE3=Keane - Is In Any Wonder?
TTITLE4=Sharon Jones and The Dap Kings - Give It Back
TTITLE5=Ozomatli - 45
TTITLE6=Corinne Bailey Rae - Closer
TTITLE7=Citizen Cope - Healing Hands
TTITLE8=Janis Ian - At Seventeen
TTITLE9=Cory Chisel - See It My Way
TTITLE10=Rosanne Cash - Long Black Veil
TTITLE11=Mumford and Sons - White Blank Page
TTITLE12=April Smith and the Great Picture Show - Wow And Flutter
TTITLE13=Raul Malo - Around The World
TTITLE14=Norah Jones - Young Blood
TTITLE15=Yeasayer - Madder Red
TTITLE16=One eskimO - UFO
TTITLE17=Jonsi - Boy Lilikoi
TTITLE18=Laura Marling - Rambling Man
TTITLE19=Charlotte Gainsbourg - Trick Pony
TTITLE20=The Heavy - How You Like Me Now?
EXTD=
EXTT0=
EXTT1=
EXTT2=
EXTT3=
EXTT4=
EXTT5=
EXTT6=
EXTT7=
EXTT8=
EXTT9=
EXTT10=
EXTT11=
EXTT12=
EXTT13=
EXTT14=
EXTT15=
EXTT16=
EXTT17=
EXTT18=
EXTT19=
EXTT20=
PLAYORDER=
